<?xml version="1.0" encoding="UTF-8" standalone="no"?>
<svg
   xmlns:dc="http://purl.org/dc/elements/1.1/"
   xmlns:cc="http://creativecommons.org/ns#"
   xmlns:rdf="http://www.w3.org/1999/02/22-rdf-syntax-ns#"
   xmlns:svg="http://www.w3.org/2000/svg"
   xmlns="http://www.w3.org/2000/svg"
   xmlns:sodipodi="http://sodipodi.sourceforge.net/DTD/sodipodi-0.dtd"
   xmlns:inkscape="http://www.inkscape.org/namespaces/inkscape"
   sodipodi:docname="blast演示.svg"
   inkscape:version="1.0 (4035a4fb49, 2020-05-01)"
   id="svg8"
   version="1.1"
   viewBox="0 0 210 297"
   height="297mm"
   width="210mm">
  <defs
     id="defs2" />
  <sodipodi:namedview
     inkscape:window-maximized="0"
     inkscape:window-y="0"
     inkscape:window-x="49"
     inkscape:window-height="729"
     inkscape:window-width="1301"
     showgrid="false"
     inkscape:document-rotation="0"
     inkscape:current-layer="layer1"
     inkscape:document-units="mm"
     inkscape:cy="412.71944"
     inkscape:cx="341.29005"
     inkscape:zoom="1.8505589"
     inkscape:pageshadow="2"
     inkscape:pageopacity="0.0"
     borderopacity="1.0"
     bordercolor="#666666"
     pagecolor="#ffffff"
     id="base" />
  <metadata
     id="metadata5">
    <rdf:RDF>
      <cc:Work
         rdf:about="">
        <dc:format>image/svg+xml</dc:format>
        <dc:type
           rdf:resource="http://purl.org/dc/dcmitype/StillImage" />
        <dc:title></dc:title>
      </cc:Work>
    </rdf:RDF>
  </metadata>
  <g
     id="layer1"
     inkscape:groupmode="layer"
     inkscape:label="图层 1">
    <path
       inkscape:export-filename="E:\LMplan\MyHappyPlans\Blog\YuanZ1949.github.io\source\_posts\读书笔记-生物信息学算法导论\blast演示.png"
       inkscape:export-ydpi="200"
       inkscape:export-xdpi="200"
       d="m 60.447853,93.148226 c 0.682933,-0.06195 0.658905,-0.06614 1.517041,-0.100129 4.410613,-0.174697 8.832804,-0.156906 13.246075,-0.189344 11.90246,-0.06461 23.804231,-0.196408 35.706801,-0.250135 5.62688,0.04687 2.87998,-7.9e-5 8.24084,0.134224 0,0 0.70818,-0.102942 0.70818,-0.102942 v 0 c -5.84041,-0.10374 -2.73456,-0.06957 -9.31773,-0.08543 -11.941821,0.103688 -23.883933,0.228224 -35.826346,0.232447 -2.696982,0.0021 -6.435604,0.0029 -9.197135,0.01201 -1.644782,0.0054 -3.324122,0.0069 -4.973569,0.04722 -1.019688,0.02495 -0.918365,0.02537 -1.726875,0.09045 0,0 1.622718,0.211635 1.622718,0.211635 z"
       id="path861"
       style="fill:#140000;fill-opacity:1;stroke:#000000;stroke-width:0.274127;stroke-linecap:round;stroke-linejoin:round;paint-order:markers fill stroke" />
    <path
       inkscape:export-filename="E:\LMplan\MyHappyPlans\Blog\YuanZ1949.github.io\source\_posts\读书笔记-生物信息学算法导论\blast演示.png"
       inkscape:export-ydpi="200"
       inkscape:export-xdpi="200"
       d="m 64.33061,82.154635 c 0.161142,2.358942 0.04982,0.610579 0.223403,3.967243 0.311741,6.028306 0.366401,5.989879 0.477435,12.667659 0.08936,5.373803 0.06514,12.384573 0.06514,17.698293 0,2.45798 0.01165,13.89259 -0.03049,16.7533 -0.031,2.10456 -0.118272,4.20743 -0.177407,6.31114 0,0 0.363148,2e-4 0.363148,2e-4 v 0 c -0.04256,-2.10377 -0.109461,-4.20706 -0.127672,-6.31131 -0.04833,-5.58416 0.06983,-11.16922 0.0056,-16.75333 0,-5.31372 -0.02422,-12.32449 0.06514,-17.698293 0.111033,-6.67778 0.165692,-6.639353 0.477435,-12.667659 0.173582,-3.356664 0.06226,-1.608301 0.223402,-3.967243 0,0 -1.565083,0 -1.565083,0 z"
       id="path865"
       style="fill:#140000;fill-opacity:1;stroke:#000000;stroke-width:0.302906;stroke-linecap:round;stroke-linejoin:round;paint-order:markers fill stroke" />
    <path
       inkscape:export-filename="E:\LMplan\MyHappyPlans\Blog\YuanZ1949.github.io\source\_posts\读书笔记-生物信息学算法导论\blast演示.png"
       inkscape:export-ydpi="200"
       inkscape:export-xdpi="200"
       d="m 71.95744,82.529232 c -0.01988,0.162197 -0.02525,0.326522 -0.05967,0.48659 -0.446193,2.073727 -1.298789,4.055649 -2.114065,6.020599 0.0073,0.186727 1.239732,0.145126 1.232469,-0.0416 v 0 c 0.657877,-1.646819 1.326581,-3.28966 1.956679,-4.945964 0.156095,-0.410324 0.321671,-0.817825 0.461139,-1.233313 0.06052,-0.180285 0.09207,-0.367925 0.1381,-0.551884 -0.04636,-0.244631 -1.66101,0.02096 -1.614643,0.265573 z"
       id="path923"
       style="fill:#ff0000;fill-opacity:1;stroke:#000000;stroke-width:0.274127;stroke-linecap:round;stroke-linejoin:round;stroke-opacity:1;paint-order:markers fill stroke" />
    <path
       inkscape:export-filename="E:\LMplan\MyHappyPlans\Blog\YuanZ1949.github.io\source\_posts\读书笔记-生物信息学算法导论\blast演示.png"
       inkscape:export-ydpi="200"
       inkscape:export-xdpi="200"
       d="m 72.800947,82.770759 c 1.167401,1.953075 2.036766,4.046165 2.907413,6.124784 0.09657,0.18646 1.327259,-0.366673 1.230694,-0.55313 v 0 c -0.961955,-2.085506 -1.844305,-4.201019 -2.716571,-6.320282 -0.130696,-0.215373 -1.552232,0.533258 -1.421536,0.748628 z"
       id="path925"
       style="fill:#ff0000;fill-opacity:1;stroke:#000000;stroke-width:0.274127;stroke-linecap:round;stroke-linejoin:round;stroke-opacity:1;paint-order:markers fill stroke" />
    <path
       inkscape:export-filename="E:\LMplan\MyHappyPlans\Blog\YuanZ1949.github.io\source\_posts\读书笔记-生物信息学算法导论\blast演示.png"
       inkscape:export-ydpi="200"
       inkscape:export-xdpi="200"
       d="m 72.130437,87.325575 c 0.519708,-0.03707 1.041028,-0.0383 1.56186,-0.0418 0.223821,0.106238 0.925039,-1.175822 0.701217,-1.282063 v 0 c -0.505573,-0.0034 -1.011763,-0.0037 -1.516133,-0.0418 -0.238414,-0.113168 -0.985359,1.252492 -0.746944,1.36566 z"
       id="path927"
       style="fill:#ff0000;fill-opacity:1;stroke:#000000;stroke-width:0.274127;stroke-linecap:round;stroke-linejoin:round;stroke-opacity:1;paint-order:markers fill stroke" />
    <path
       inkscape:export-filename="E:\LMplan\MyHappyPlans\Blog\YuanZ1949.github.io\source\_posts\读书笔记-生物信息学算法导论\blast演示.png"
       inkscape:export-ydpi="200"
       inkscape:export-xdpi="200"
       d="m 82.767047,82.888898 c 1.867322,-0.117911 3.739804,-0.122502 5.610454,-0.116313 0.19625,0.09315 0.811084,-1.030967 0.614835,-1.124119 v 0 c -1.828181,0.006 -3.658604,0.0049 -5.483218,-0.116314 -0.23686,-0.112429 -0.978928,1.244317 -0.742071,1.356746 z"
       id="path929"
       style="fill:#fff96e;fill-opacity:1;stroke:#000000;stroke-width:0.274127;stroke-linecap:round;stroke-linejoin:round;paint-order:markers fill stroke" />
    <path
       inkscape:export-filename="E:\LMplan\MyHappyPlans\Blog\YuanZ1949.github.io\source\_posts\读书笔记-生物信息学算法导论\blast演示.png"
       inkscape:export-ydpi="200"
       inkscape:export-xdpi="200"
       d="m 84.513921,83.218342 c 0.04078,0.09286 0.08999,0.18288 0.122334,0.278577 0.142956,0.422958 0.23225,0.883359 0.29704,1.318355 0.195403,1.311931 0.24658,2.631186 0.307573,3.952745 0.03732,0.863002 0.04026,1.726436 0.0263,2.589803 0.06354,0.225023 1.548767,-0.138912 1.48523,-0.363934 v 0 c -0.08638,-0.848861 -0.164866,-1.698419 -0.219644,-2.549663 -0.14384,-2.392201 -0.02633,-0.289179 -0.138531,-2.780006 -0.04694,-1.042234 -0.07745,-2.099561 -0.382515,-3.111132 -0.116141,-0.226928 -1.613934,0.438327 -1.497795,0.665255 z"
       id="path931"
       style="fill:#fff96e;fill-opacity:1;stroke:#000000;stroke-width:0.274127;stroke-linecap:round;stroke-linejoin:round;paint-order:markers fill stroke" />
    <path
       inkscape:export-filename="E:\LMplan\MyHappyPlans\Blog\YuanZ1949.github.io\source\_posts\读书笔记-生物信息学算法导论\blast演示.png"
       inkscape:export-ydpi="200"
       inkscape:export-xdpi="200"
       d="m 99.013975,81.804734 c -0.688943,0.03688 -1.379837,0.02986 -2.069691,0.03232 -0.92208,0.03354 -1.493015,0.321493 -2.318052,0.831003 -0.395207,0.244065 -0.725907,0.910241 -0.925635,1.293755 -0.459308,0.885801 -0.487704,1.851003 -0.461776,2.813005 0.01852,0.507645 0.03318,1.024151 0.377675,1.450012 0.269128,0.332692 0.401323,0.348876 0.793901,0.554802 1.144295,0.393753 2.374313,0.494149 3.58232,0.579562 0.254243,-0.01114 1.112632,0.08441 1.331219,-0.01445 0.386341,-0.174738 0.754974,-0.381598 1.132454,-0.572399 0.0306,-0.08671 0.0611,-0.173427 0.0917,-0.260139 0.0178,-0.251288 -1.640744,-0.353467 -1.658582,-0.102182 v 0 c -0.0068,-0.02973 -0.01363,-0.05947 -0.02045,-0.0892 0.312815,-0.149267 0.623028,-0.303358 0.938438,-0.447797 0.03495,-0.01601 -0.06284,0.04298 -0.09599,0.06201 -0.04048,0.02323 -0.07865,0.05333 -0.124633,0.06461 -0.271837,0.06669 -0.576387,0.02357 -0.850957,0.06544 -1.106451,0.0045 -2.218748,-0.08152 -3.278542,-0.397108 -0.158211,-0.05282 -0.326137,-0.08448 -0.449872,-0.200226 -0.283519,-0.265221 -0.177547,-0.731311 -0.232666,-1.060725 -0.02975,-0.829167 0.04576,-1.647828 0.489195,-2.38774 0.194167,-0.288192 0.25585,-0.42585 0.527926,-0.653929 0.09989,-0.08374 0.460281,-0.237378 0.327308,-0.219284 -0.21133,0.02876 -0.381346,0.180557 -0.579975,0.253664 -0.226951,0.08353 0.884667,-0.437358 0.683677,-0.243832 0.678054,0.0024 1.357264,-0.0052 2.034343,0.03232 0.241527,0.114644 0.99822,-1.268839 0.756692,-1.383483 z"
       id="path939"
       style="fill:#00a406;fill-opacity:1;stroke:#000000;stroke-width:0.274127;stroke-linecap:round;stroke-linejoin:round;paint-order:markers fill stroke" />
    <ellipse
       inkscape:export-filename="E:\LMplan\MyHappyPlans\Blog\YuanZ1949.github.io\source\_posts\读书笔记-生物信息学算法导论\blast演示.png"
       ry="0.013856673"
       rx="0.014874384"
       inkscape:export-ydpi="200"
       inkscape:export-xdpi="200"
       cy="88.215469"
       cx="99.64518"
       style="fill:#00a406;fill-opacity:1;stroke:#000000;stroke-width:0.274127"
       id="path941" />
    <ellipse
       inkscape:export-filename="E:\LMplan\MyHappyPlans\Blog\YuanZ1949.github.io\source\_posts\读书笔记-生物信息学算法导论\blast演示.png"
       ry="0.013856673"
       rx="0.014874384"
       inkscape:export-ydpi="200"
       inkscape:export-xdpi="200"
       cy="88.215469"
       cx="99.64518"
       style="fill:#00a406;fill-opacity:1;stroke:#000000;stroke-width:0.274127"
       id="path943" />
    <path
       inkscape:export-filename="E:\LMplan\MyHappyPlans\Blog\YuanZ1949.github.io\source\_posts\读书笔记-生物信息学算法导论\blast演示.png"
       inkscape:export-ydpi="200"
       inkscape:export-xdpi="200"
       d="m 112.67332,81.518783 c -0.59749,0.0283 -1.19591,0.02787 -1.79401,0.02668 -0.45888,0.0164 -1.24521,-0.06958 -1.65631,0.114331 -0.43152,0.193046 -0.83856,0.430374 -1.25784,0.645563 -0.81285,0.563885 -1.15004,1.251309 -1.49706,2.110634 -0.34408,1.118174 -0.46715,2.279345 -0.46182,3.438723 0.0248,0.755531 0.24076,1.519891 0.78604,2.101731 0.0905,0.09655 0.19962,0.176403 0.29943,0.264602 0.68326,0.496501 1.51701,0.498269 2.34132,0.468807 1.14777,-0.03622 1.62617,-0.1857 2.64871,-0.925234 0.23058,-0.166762 0.41945,-0.686242 0.51937,-0.912276 0.18056,-0.458319 0.21084,-0.938697 0.25259,-1.418812 0.009,-0.0991 0.005,-0.200422 0.0318,-0.296799 0.008,-0.02635 0.0917,-0.06448 0.0641,-0.05562 -0.50958,0.163632 -1.01118,0.348065 -1.51677,0.522097 0.1619,0.773481 0.19767,1.560553 0.21465,2.346431 0.003,0.355915 -0.009,0.711542 -0.0255,1.067033 0.0596,0.23781 1.62918,-0.103277 1.56963,-0.341087 v 0 c -0.008,-0.363123 -0.0139,-0.726316 -0.0323,-1.08915 -0.04,-0.917535 -0.0518,-1.84999 -0.27092,-2.748441 -0.52821,0.135982 -1.0768,0.21608 -1.58463,0.40795 -0.0631,0.02384 0.002,0.126868 0.001,0.190294 -0.006,0.476813 -0.0538,0.950976 -0.2751,1.389081 -0.0707,0.103931 -0.12798,0.216942 -0.21213,0.31179 -0.073,0.08233 -0.36817,0.232598 -0.25511,0.214897 0.22016,-0.03447 0.38843,-0.215545 0.60404,-0.269523 0.11085,-0.02775 -0.17199,0.149239 -0.27891,0.188127 -0.1173,0.04266 -0.65294,0.0712 -0.77259,0.07952 -0.59523,0.03654 -1.24977,0.13988 -1.80545,-0.108974 -0.65861,-0.428644 -0.73798,-1.021443 -0.78443,-1.725028 0.009,-1.060886 0.0733,-2.132679 0.50719,-3.128714 0.34748,-0.70536 0.70864,-1.218223 1.45542,-1.600927 -0.23051,0.107894 -0.4551,0.227571 -0.69155,0.32368 -0.0752,0.03061 0.1314,-0.09395 0.20587,-0.126267 0.35759,-0.15518 0.77102,-0.08881 1.14959,-0.108312 0.58837,-0.0011 1.17711,-0.0021 1.76483,0.02667 0.24153,0.114647 0.99822,-1.268838 0.75669,-1.383482 z"
       id="path951"
       style="fill:#5e5ce5;fill-opacity:1;stroke:#000000;stroke-width:0.274127;stroke-linecap:round;stroke-linejoin:round;paint-order:markers fill stroke" />
    <path
       inkscape:export-filename="E:\LMplan\MyHappyPlans\Blog\YuanZ1949.github.io\source\_posts\读书笔记-生物信息学算法导论\blast演示.png"
       inkscape:export-ydpi="200"
       inkscape:export-xdpi="200"
       d="m 56.629013,96.057002 c 0.117892,1.27418 -0.02919,2.553708 -0.161465,3.821663 -0.100765,0.751645 -0.26348,1.493785 -0.424031,2.235695 0.03491,0.22867 1.544228,0.0287 1.509326,-0.19992 v 0 c 0.118307,-0.75939 0.240851,-1.51832 0.336058,-2.280639 0.134162,-1.312021 0.297018,-2.621989 0.36082,-3.939273 -0.06328,-0.245549 -1.683986,0.116925 -1.620708,0.362474 z"
       id="path957"
       style="fill:#ff0000;fill-opacity:1;stroke:#000000;stroke-width:0.274127;stroke-linecap:round;stroke-linejoin:round;paint-order:markers fill stroke" />
    <path
       inkscape:export-filename="E:\LMplan\MyHappyPlans\Blog\YuanZ1949.github.io\source\_posts\读书笔记-生物信息学算法导论\blast演示.png"
       inkscape:export-ydpi="200"
       inkscape:export-xdpi="200"
       d="m 57.195247,96.22905 c 0.999111,1.431189 1.920231,2.905323 2.792305,4.4065 0.506516,0.87572 0.934329,1.78482 1.330096,2.70732 0.107739,0.20057 1.431537,-0.41657 1.323795,-0.61714 v 0 c -0.470699,-0.90932 -0.951144,-1.81421 -1.464291,-2.70363 -0.838822,-1.480608 -1.715833,-2.944463 -2.484111,-4.458305 -0.11614,-0.226926 -1.613934,0.43833 -1.497794,0.665255 z"
       id="path959"
       style="fill:#ff0000;fill-opacity:1;stroke:#000000;stroke-width:0.274127;stroke-linecap:round;stroke-linejoin:round;paint-order:markers fill stroke" />
    <path
       inkscape:export-filename="E:\LMplan\MyHappyPlans\Blog\YuanZ1949.github.io\source\_posts\读书笔记-生物信息学算法导论\blast演示.png"
       inkscape:export-ydpi="200"
       inkscape:export-xdpi="200"
       d="m 57.373379,100.91041 c 0.349024,-0.0194 0.698613,-0.0217 1.048112,-0.0242 0.230751,0.10953 0.953685,-1.212237 0.722934,-1.321766 v 0 c -0.340683,-0.0024 -0.681485,-0.0043 -1.021665,-0.02418 -0.239195,-0.113538 -0.988577,1.256576 -0.749381,1.370106 z"
       id="path961"
       style="fill:#ff0000;fill-opacity:1;stroke:#000000;stroke-width:0.274127;stroke-linecap:round;stroke-linejoin:round;paint-order:markers fill stroke" />
    <path
       inkscape:export-filename="E:\LMplan\MyHappyPlans\Blog\YuanZ1949.github.io\source\_posts\读书笔记-生物信息学算法导论\blast演示.png"
       inkscape:export-ydpi="200"
       inkscape:export-xdpi="200"
       d="m 55.00106,107.49394 c 2.086611,-0.14788 4.180892,-0.14967 6.272103,-0.12547 0.197721,0.0939 0.81717,-1.0387 0.61945,-1.13255 v 0 c -2.045342,0.0234 -4.0945,0.0276 -6.134858,-0.12547 -0.241527,-0.11464 -0.998221,1.26884 -0.756695,1.38349 z"
       id="path963"
       style="fill:#fff96e;fill-opacity:1;stroke:#000000;stroke-width:0.274127;stroke-linecap:round;stroke-linejoin:round;paint-order:markers fill stroke" />
    <path
       inkscape:export-filename="E:\LMplan\MyHappyPlans\Blog\YuanZ1949.github.io\source\_posts\读书笔记-生物信息学算法导论\blast演示.png"
       inkscape:export-ydpi="200"
       inkscape:export-xdpi="200"
       d="m 57.55509,107.53514 c 0.170986,1.29807 0.28249,2.60447 0.404991,3.90775 0.08379,0.93975 0.140816,1.88206 0.123235,2.82518 0.06442,0.23521 1.616865,-0.13376 1.55245,-0.36897 v 0 c -0.06861,-0.94714 -0.186655,-1.89015 -0.275455,-2.83571 -0.11877,-1.29302 -0.215769,-2.58981 -0.194957,-3.88839 -0.06287,-0.24397 -1.673137,0.11617 -1.610264,0.36014 z"
       id="path969"
       style="fill:#fff96e;fill-opacity:1;stroke:#000000;stroke-width:0.274127;stroke-linecap:round;stroke-linejoin:round;paint-order:markers fill stroke" />
    <path
       inkscape:export-filename="E:\LMplan\MyHappyPlans\Blog\YuanZ1949.github.io\source\_posts\读书笔记-生物信息学算法导论\blast演示.png"
       inkscape:export-ydpi="200"
       inkscape:export-xdpi="200"
       d="m 60.491577,116.40464 c -0.569276,0.0301 -1.137884,-0.0533 -1.705339,-0.0922 -0.842078,-0.0668 -1.613335,-0.05 -2.43664,0.13833 -0.419965,0.23332 -0.869909,0.42517 -1.259899,0.69996 -0.12474,0.0879 -0.178269,0.23998 -0.254598,0.36716 -0.365352,0.60869 -0.38817,1.11534 -0.422745,1.79585 0.0026,0.76439 -0.0416,1.60628 0.375437,2.29831 0.08271,0.13725 0.192673,0.25861 0.289008,0.38792 0.669158,0.75947 1.513356,1.13393 2.498212,1.41595 0.72766,0.19421 1.487939,0.16142 2.234944,0.12698 0.113285,-0.0113 0.228669,-0.0108 0.339856,-0.034 0.25569,-0.0533 0.583158,-0.17495 0.807019,-0.30225 0.674565,-0.38358 1.190798,-0.64104 1.678402,-1.1552 0.05118,-0.24144 -1.542381,-0.53463 -1.593566,-0.29319 v 0 c -0.133616,0.10605 -0.57152,0.37113 -0.40929,0.30868 0.216732,-0.0834 0.399374,-0.23224 0.61471,-0.31875 0.201912,-0.0811 -0.35552,0.24327 -0.548634,0.34123 -0.068,0.0345 -0.142164,0.0572 -0.213244,0.0858 -0.66201,0.06 -1.333943,0.13008 -1.995822,0.034 -0.78095,-0.16065 -1.547543,-0.43039 -2.080734,-1.01248 -0.06552,-0.0837 -0.139958,-0.16187 -0.196576,-0.251 -0.351399,-0.55319 -0.272663,-1.29983 -0.265742,-1.91132 0.0457,-0.37445 0.08086,-0.73196 0.288744,-1.06493 0.05293,-0.0848 0.112244,-0.16729 0.18352,-0.23947 0.06088,-0.0617 0.294067,-0.18666 0.209399,-0.15844 -0.241714,0.0806 -0.460023,0.21242 -0.690034,0.31863 0.08452,-0.0528 0.159237,-0.12282 0.253576,-0.15836 0.115367,-0.0435 0.242555,-0.0521 0.364659,-0.0745 0.481646,-0.0883 0.964237,-0.0564 1.452562,-0.0405 0.579384,0.0301 1.153701,0.0922 1.72612,0.17115 0.241531,0.11465 0.998222,-1.26883 0.756695,-1.38348 z"
       id="path971"
       style="fill:#00a406;fill-opacity:1;stroke:#000000;stroke-width:0.274127;stroke-linecap:round;stroke-linejoin:round;paint-order:markers fill stroke" />
    <path
       inkscape:export-filename="E:\LMplan\MyHappyPlans\Blog\YuanZ1949.github.io\source\_posts\读书笔记-生物信息学算法导论\blast演示.png"
       inkscape:export-ydpi="200"
       inkscape:export-xdpi="200"
       d="m 59.110294,125.12611 c -0.480145,0.0193 -0.960987,0.0176 -1.441502,0.0215 -1.005271,-0.002 -1.554155,0.29619 -2.431891,0.89255 -0.232878,0.15823 -0.4447,0.60317 -0.56777,0.82285 -0.517306,1.16004 -0.768814,2.39296 -0.857764,3.64063 -0.0038,0.16406 -0.02936,0.32895 -0.01122,0.49217 0.09244,0.83205 0.601224,1.4895 1.313636,1.9695 0.182184,0.12274 0.382123,0.22083 0.573186,0.33125 0.217235,0.0923 0.429451,0.19564 0.651705,0.27693 0.733679,0.26832 1.741773,0.53952 2.536429,0.55822 0.17277,0.004 0.344929,-0.0208 0.517394,-0.0311 0.454932,-0.21887 0.946801,-0.38115 1.364796,-0.65663 0.141375,-0.0932 0.197172,-0.26801 0.264004,-0.41684 0.282757,-0.62969 0.173397,-1.36072 0.124217,-2.01837 -0.01204,-0.12622 -0.06294,-0.68167 -0.08522,-0.8425 -0.09406,-0.67893 -0.279659,-0.51893 -1.673524,0.0956 -0.13245,0.0584 0.0077,0.27293 0.01153,0.40939 0.0039,0.13671 0.0076,0.27342 0.0115,0.41013 0.0263,1.01241 0.0265,2.02505 0.01855,3.03765 -0.0075,0.4111 -0.01448,0.8222 -0.02164,1.2333 0.06228,0.2417 1.657593,-0.11504 1.595314,-0.35674 v 0 c -0.0071,-0.40973 -0.01912,-0.81932 -0.03731,-1.22877 -0.03022,-1.00122 -0.06134,-2.00382 -0.0054,-3.00481 0.01289,-0.12289 0.01118,-0.24789 0.03871,-0.36869 0.0059,-0.0258 0.08651,-0.06 0.05834,-0.0574 -3.882331,0.35046 -1.652653,-0.254 -1.518257,0.27999 0.05766,0.22906 0.08094,0.55071 0.104404,0.77505 0.0176,0.39893 0.0712,0.84212 -0.07449,1.2294 -0.0301,0.08 -0.07327,0.15776 -0.131663,0.22277 -0.05228,0.0582 -0.272207,0.15852 -0.193418,0.13921 0.244679,-0.06 0.469319,-0.17624 0.703982,-0.26436 -0.107373,0.0443 -0.206773,0.11236 -0.322111,0.13295 -0.276129,0.0493 -0.788716,-0.0195 -1.042057,-0.0607 -0.630339,-0.10242 -1.246847,-0.2734 -1.827616,-0.52465 -1.037065,-0.55234 -1.481476,-0.8617 -1.424548,-2.04669 0.08284,-1.12839 0.295891,-2.26344 0.911626,-3.25606 0.07765,-0.0948 0.144695,-0.19804 0.232958,-0.28441 0.08634,-0.0845 0.410926,-0.24545 0.287652,-0.22503 -0.237126,0.0393 -0.435624,0.1915 -0.654188,0.28575 -0.226713,0.0978 0.292008,-0.15469 0.560375,-0.21626 0.08714,-0.02 0.177762,-0.0232 0.266645,-0.0347 0.472661,0.004 0.945679,0.002 1.417952,0.0215 0.241527,0.11465 0.998218,-1.26883 0.756692,-1.38348 z"
       id="path973"
       style="fill:#5e5ce5;fill-opacity:1;stroke:#000000;stroke-width:0.274127;stroke-linecap:round;stroke-linejoin:round;paint-order:markers fill stroke" />
    <path
       inkscape:export-filename="E:\LMplan\MyHappyPlans\Blog\YuanZ1949.github.io\source\_posts\读书笔记-生物信息学算法导论\blast演示.png"
       inkscape:export-ydpi="200"
       inkscape:export-xdpi="200"
       d="m 71.523986,96.975074 c 0.06938,1.144715 0.08199,2.292011 0.07009,3.438286 -0.0035,0.65307 -0.05436,1.30462 -0.06742,1.95732 -0.01,0.31589 -5.68e-4,0.63175 0.006,0.94759 5.67e-4,0.0746 8.51e-4,0.14924 0.0014,0.22386 0.06188,0.24013 1.646829,-0.11435 1.584945,-0.35448 v 0 c 5.67e-4,-0.0748 8.51e-4,-0.14964 0.0014,-0.22445 0.0064,-0.31675 0.01602,-0.63351 0.006,-0.95031 -0.01298,-0.64265 -0.06417,-1.28412 -0.06742,-1.92716 -0.01208,-1.156729 0.0017,-2.314408 0.07009,-3.469629 -0.06267,-0.243176 -1.667715,0.115797 -1.605048,0.358973 z"
       id="path983"
       style="fill:#ff2a2a;fill-opacity:1;stroke:#000000;stroke-width:0.274127;stroke-linecap:round;stroke-linejoin:round;paint-order:markers fill stroke" />
    <path
       inkscape:export-filename="E:\LMplan\MyHappyPlans\Blog\YuanZ1949.github.io\source\_posts\读书笔记-生物信息学算法导论\blast演示.png"
       inkscape:export-ydpi="200"
       inkscape:export-xdpi="200"
       d="m 84.101164,107.63796 c 0.06794,1.00098 0.07777,2.00537 0.07684,3.00815 -0.0046,0.76114 -0.01957,1.52205 -0.0544,2.28251 0.06153,0.23875 1.637365,-0.11369 1.575836,-0.35244 v 0 c -0.03518,-0.75234 -0.04973,-1.50514 -0.0544,-2.25817 -8.52e-4,-1.01426 0.0098,-2.03 0.07684,-3.04252 -0.06328,-0.24555 -1.683989,0.11693 -1.620706,0.36247 z"
       id="path991"
       style="fill:#fff96e;fill-opacity:1;stroke:#000000;stroke-width:0.274127;stroke-linecap:round;stroke-linejoin:round;paint-order:markers fill stroke" />
    <path
       inkscape:export-filename="E:\LMplan\MyHappyPlans\Blog\YuanZ1949.github.io\source\_posts\读书笔记-生物信息学算法导论\blast演示.png"
       inkscape:export-ydpi="200"
       inkscape:export-xdpi="200"
       d="m 94.238389,117.70642 c 0.04917,0.82212 0.04579,1.64595 0.03903,2.46899 -0.01,0.55019 -0.0369,1.09981 -0.02596,1.65012 0.01232,0.47502 -0.0055,0.95002 -0.0071,1.42502 -0.0012,0.17115 -0.0026,0.34229 -0.0042,0.51343 0.06252,0.24261 1.663804,-0.11552 1.601281,-0.35813 v 0 c -0.0014,-0.17052 -0.0031,-0.34104 -0.0042,-0.51157 -0.0014,-0.47395 -0.01937,-0.9479 -0.007,-1.42188 0.01077,-0.54644 -0.0156,-1.09218 -0.02596,-1.6385 -0.0069,-0.82887 -0.0097,-1.65848 0.03903,-2.48645 -0.06267,-0.24318 -1.667716,0.1158 -1.605047,0.35897 z"
       id="path993"
       style="fill:#00a406;fill-opacity:1;stroke:#000000;stroke-width:0.274127;stroke-linecap:round;stroke-linejoin:round;paint-order:markers fill stroke" />
    <path
       inkscape:export-filename="E:\LMplan\MyHappyPlans\Blog\YuanZ1949.github.io\source\_posts\读书笔记-生物信息学算法导论\blast演示.png"
       inkscape:export-ydpi="200"
       inkscape:export-xdpi="200"
       d="m 107.12513,127.53154 c 0.14744,0.70958 0.18173,1.43348 0.21246,2.15389 0.0201,0.92784 0.009,1.85546 -0.0206,2.78295 -0.0107,0.37294 -0.0408,0.74545 -0.0363,1.11863 0.003,0.24404 0.003,0.4881 0.003,0.73216 0.0629,0.24297 1.66656,-0.11704 1.60372,-0.36001 v 0 c -5.7e-4,-0.24399 -0.001,-0.48798 5.6e-4,-0.73196 0.004,-0.36617 -0.0177,-0.73212 -0.0196,-1.09827 -0.0107,-0.9344 -0.004,-1.8689 -0.0267,-2.80313 -0.0132,-0.72002 -0.0582,-1.4378 -0.10165,-2.15557 -0.0631,-0.24476 -1.67856,0.11655 -1.61548,0.36131 z"
       id="path995"
       style="fill:#5e5ce5;fill-opacity:1;stroke:#000000;stroke-width:0.274127;stroke-linecap:round;stroke-linejoin:round;stroke-opacity:1;paint-order:markers fill stroke" />
    <path
       inkscape:export-filename="E:\LMplan\MyHappyPlans\Blog\YuanZ1949.github.io\source\_posts\读书笔记-生物信息学算法导论\blast演示.png"
       inkscape:export-ydpi="200"
       inkscape:export-xdpi="200"
       d="m 84.873917,97.312251 c 0.03395,-0.01656 0.07279,-0.02638 0.101859,-0.04965 0.185448,-0.148456 0.08163,-0.142285 0.296604,-0.262078 0.0586,-0.03266 0.245815,-0.108966 0.18895,-0.07375 -0.460643,0.285306 -1.034798,0.541425 -0.410903,0.254172 0.114794,0.201877 0.248756,-0.25995 0.361697,-0.168328 0.131479,0.106662 0.198209,0.746829 0.213392,0.841193 0.05629,0.705376 0.09686,1.414309 0.03056,2.120799 -0.06106,0.650701 -0.223812,1.282331 -0.390566,1.914391 -0.03199,0.0846 -0.134746,0.50366 -0.314446,0.5655 -0.06663,0.0229 -0.257502,-0.0113 -0.204593,-0.0555 0.225633,-0.18826 0.536613,-0.26516 0.784025,-0.42795 0.04967,-0.0327 -0.118696,0.0302 -0.179495,0.0302 -0.07302,2e-5 -0.144445,-0.0201 -0.216664,-0.0301 -0.09927,-0.0393 -0.206005,-0.0652 -0.297819,-0.11793 -0.635347,-0.36499 -0.973155,-1.12184 -1.188904,-1.7489 -0.210922,-0.731954 -0.300972,-1.502852 -0.130623,-2.248229 0.07756,-0.28993 0.244496,-0.525655 0.433534,-0.759801 0.01539,-0.243422 -1.59129,-0.331578 -1.606678,-0.08815 v 0 c -0.178893,0.342411 -0.342065,0.686576 -0.402694,1.067875 -0.01803,0.13934 -0.04527,0.277915 -0.05412,0.418023 -0.04676,0.739793 0.133197,1.487495 0.335385,2.195672 0.06591,0.17349 0.121031,0.35088 0.197732,0.52048 0.29432,0.65079 0.744338,1.30884 1.351367,1.74677 0.122215,0.0882 0.267504,0.14437 0.401255,0.21656 0.140096,0.0532 0.599199,0.26105 0.78498,0.20955 1.362347,-0.3776 1.597058,-0.54945 1.841621,-1.66857 0.269806,-1.42252 0.435393,-2.866193 0.298756,-4.31158 -0.106872,-0.662959 -0.217034,-1.476462 -1.008108,-1.739741 -0.136981,-0.04559 -0.286419,-0.07045 -0.431494,-0.06063 -0.09572,0.0065 -0.175792,0.07179 -0.263689,0.107683 -0.77697,0.370964 -1.552638,0.705649 -2.154379,1.29931 -0.05285,0.247481 1.580613,0.550164 1.633458,0.302686 z"
       id="path997"
       style="fill:#140000;fill-opacity:1;stroke:#000000;stroke-width:0.274127;stroke-linecap:round;stroke-linejoin:round;paint-order:markers fill stroke" />
    <path
       inkscape:export-filename="E:\LMplan\MyHappyPlans\Blog\YuanZ1949.github.io\source\_posts\读书笔记-生物信息学算法导论\blast演示.png"
       inkscape:export-ydpi="200"
       inkscape:export-xdpi="200"
       d="m 95.518644,97.628674 c 0.462358,-0.04763 0.907833,-0.01543 1.349839,0.115663 0.481586,0.209246 0.605888,0.526799 0.690999,0.986769 0.116683,0.978402 0.0048,1.953324 -0.174817,2.917564 -0.105144,0.37648 -0.131713,0.96851 -0.531456,1.21125 -0.05873,0.0357 -0.255216,0.0999 -0.200533,0.059 0.230048,-0.17186 0.49011,-0.30561 0.735166,-0.45841 -0.309519,0.19424 -0.679998,0.0927 -1.006367,-0.0123 -0.192929,-0.12415 -0.302419,-0.17845 -0.459463,-0.35558 -0.353589,-0.3988 -0.506085,-1.03572 -0.639965,-1.52027 -0.275967,-1.033396 -0.345368,-2.09715 -0.308233,-3.157555 0.05684,-0.402098 -0.0031,-0.223666 0.154521,-0.542158 -0.0215,-0.242745 -1.623693,-0.11961 -1.602196,0.123134 v 0 c -0.09926,0.503219 -0.06782,0.248791 -0.09357,0.763368 0.03615,1.119175 0.143187,2.240116 0.4137,3.333271 0.175954,0.66834 0.357919,1.36554 0.822774,1.92083 0.168601,0.2014 0.445695,0.4039 0.6508,0.56684 0.114137,0.0603 0.223282,0.1296 0.342409,0.1808 0.415598,0.17864 0.91742,0.20723 1.363253,0.1759 0.40057,-0.22245 0.822877,-0.41399 1.201708,-0.66734 0.105434,-0.0705 0.165002,-0.18776 0.231859,-0.29139 0.299765,-0.46462 0.378033,-1.02213 0.459836,-1.5472 0.155246,-1.05966 0.282794,-2.131611 0.142991,-3.200083 -0.03224,-0.139002 -0.05259,-0.280866 -0.0967,-0.41701 -0.177328,-0.547312 -0.576046,-0.953738 -1.082398,-1.257964 -0.512007,-0.202914 -1.048465,-0.316928 -1.607459,-0.310586 -0.24153,-0.114647 -0.998222,1.268838 -0.756694,1.383482 z"
       id="path1001"
       style="fill:#140000;fill-opacity:1;stroke:#000000;stroke-width:0.274127;stroke-linecap:round;stroke-linejoin:round;paint-order:markers fill stroke" />
    <path
       inkscape:export-filename="E:\LMplan\MyHappyPlans\Blog\YuanZ1949.github.io\source\_posts\读书笔记-生物信息学算法导论\blast演示.png"
       inkscape:export-ydpi="200"
       inkscape:export-xdpi="200"
       d="m 108.56408,98.057598 c 0.38729,-0.01691 0.77526,-0.01275 1.16286,-0.01048 0.57216,-0.02469 0.55356,0.05248 0.77529,0.559557 0.30463,0.912201 0.30744,1.872805 0.26873,2.817895 -0.11146,0.72136 -0.35409,1.06891 -1.02273,1.42115 -0.0933,0.053 -0.37215,0.2132 -0.27975,0.15895 1.26357,-0.74175 0.51108,-0.26689 0.18015,-0.16108 -0.18634,0.0596 -0.21576,0.0547 -0.40634,0.0787 -0.43732,0.0202 -0.87346,-0.0374 -1.30841,-0.0731 -0.11855,-0.0246 -0.16102,-0.0164 -0.24854,-0.11924 -0.32637,-0.38348 -0.37982,-1.23174 -0.43744,-1.68878 -0.10187,-1.262512 0.21734,-2.212122 0.89585,-3.280034 0.28961,-0.401108 0.13342,-0.224213 0.45827,-0.538432 0.0336,-0.24013 -1.55132,-0.432864 -1.58496,-0.192733 v 0 c -0.30901,0.437224 -0.161,0.208896 -0.44169,0.686282 -0.62193,1.233855 -0.89846,2.364097 -0.7791,3.740427 0.10165,0.85249 0.14765,1.93411 0.94637,2.51066 0.0984,0.0711 0.21586,0.11577 0.32378,0.17365 0.48209,0.0963 0.98232,0.0899 1.47109,0.1498 1.17386,0.0224 1.77311,-0.33734 2.76231,-1.05392 0.0926,-0.0837 0.19216,-0.16125 0.27786,-0.25113 0.49868,-0.52291 0.68819,-1.20701 0.7284,-1.89079 -0.004,-1.04749 -0.0447,-2.106197 -0.37516,-3.116011 -0.0626,-0.153607 -0.11136,-0.312791 -0.18792,-0.46082 -0.24136,-0.466637 -0.69014,-0.849003 -1.27083,-0.833604 -0.38377,0.0021 -0.76794,0.0067 -1.1514,-0.01048 -0.24152,-0.114644 -0.99822,1.268838 -0.75669,1.383482 z"
       id="path1003"
       style="fill:#140000;fill-opacity:1;stroke:#000000;stroke-width:0.274127;stroke-linecap:round;stroke-linejoin:round;paint-order:markers fill stroke" />
    <path
       inkscape:export-filename="E:\LMplan\MyHappyPlans\Blog\YuanZ1949.github.io\source\_posts\读书笔记-生物信息学算法导论\blast演示.png"
       inkscape:export-ydpi="200"
       inkscape:export-xdpi="200"
       d="m 70.855399,108.08991 c 0.336982,-0.21347 0.758418,-0.28038 1.155836,-0.32997 0.03507,-0.006 0.07043,-0.0237 0.105219,-0.0168 0.403862,0.0807 0.862099,0.98491 1.013842,1.29503 0.289501,0.68863 0.255439,1.41416 0.190876,2.1351 -0.04908,0.5964 -0.462709,0.96856 -0.865592,1.3869 -0.212614,0.18086 -0.449895,0.34742 -0.694847,0.48921 -0.05579,0.0323 -0.23284,0.11277 -0.177249,0.0802 0.917724,-0.53799 1.023616,-0.63922 0.733883,-0.38622 -0.48006,0.18572 -0.600089,-0.10875 -0.801748,-0.46844 -0.387999,-1.04466 -0.567893,-2.1554 -0.602938,-3.25807 0.03674,-0.33005 -0.03936,-0.89589 0.217219,-1.17986 0.05419,-0.06 0.144745,-0.0806 0.221143,-0.11347 0.08343,-0.0359 0.328305,-0.14672 0.257244,-0.0924 -0.203912,0.1558 -0.441919,0.26824 -0.662878,0.40236 0.263126,-0.10995 0.131215,-0.0691 0.394074,-0.12713 0.240869,0.10141 0.910215,-1.27831 0.669343,-1.37972 v 0 c -0.450673,-10e-4 -0.219572,-0.0153 -0.69289,0.0477 -0.417588,0.21911 -0.853402,0.4105 -1.252765,0.65735 -0.122744,0.0759 -0.217534,0.18859 -0.299909,0.30235 -0.395942,0.54678 -0.347162,1.22512 -0.333452,1.85145 0.07851,1.20975 0.266273,2.43267 0.698647,3.57952 0.404516,0.77823 0.660099,1.18058 1.629143,1.22104 0.08791,-0.003 0.183935,0.0246 0.263711,-0.01 0.808747,-0.35025 1.456312,-0.76531 2.020268,-1.39056 0.513744,-0.59385 0.807394,-1.13264 0.85084,-1.90987 0.04181,-0.85208 -0.01063,-1.70596 -0.365114,-2.50498 -0.333457,-0.66318 -0.774056,-1.48518 -1.479975,-1.8738 -0.111124,-0.0612 -0.241552,-0.0849 -0.36233,-0.12728 -0.498627,0.022 -0.98664,0.10076 -1.472543,0.20608 -0.264358,-0.0541 -0.621421,1.46016 -0.357061,1.51426 z"
       id="path1005"
       style="fill:#140000;fill-opacity:1;stroke:#000000;stroke-width:0.274127;stroke-linecap:round;stroke-linejoin:round;paint-order:markers fill stroke" />
    <path
       inkscape:export-filename="E:\LMplan\MyHappyPlans\Blog\YuanZ1949.github.io\source\_posts\读书笔记-生物信息学算法导论\blast演示.png"
       inkscape:export-ydpi="200"
       inkscape:export-xdpi="200"
       d="m 94.798053,108.06138 c 0.541733,-0.009 1.091135,-0.067 1.624247,0.0416 0.60707,0.34203 0.74559,1.09814 0.847714,1.69818 0.03419,0.72878 0.101365,1.51259 -0.05144,2.23439 -0.02616,0.12358 -0.07262,0.24267 -0.108926,0.36401 -0.165781,0.30911 -0.402158,0.57599 -0.731409,0.74576 -0.09811,0.0506 -0.398122,0.18322 -0.312707,0.11554 0.397525,-0.315 0.968665,-0.46654 0.366934,-0.28448 -0.247352,0.0235 -0.611583,0.10845 -0.838753,-0.0414 -0.123364,-0.0814 -0.323172,-0.42076 -0.365593,-0.48422 -0.49519,-0.90381 -0.624131,-1.90855 -0.619344,-2.909 -0.01565,-0.51645 0.119942,-0.96573 0.406008,-1.40382 0.06983,-0.10694 0.133735,-0.2186 0.219468,-0.31498 0.07422,-0.0834 0.171091,-0.14684 0.256636,-0.22026 0.523152,-0.23301 0.412996,-0.20065 -0.259195,0.21423 0.252632,0.0521 0.596678,-1.39497 0.344046,-1.44709 v 0 c -1.440767,0.76507 -0.937829,0.36528 -1.657295,1.01514 -0.583809,0.79408 -0.893835,1.53614 -0.835495,2.51447 0.05065,1.13189 0.278392,2.25554 0.790969,3.29033 0.196949,0.32141 0.336343,0.60751 0.637363,0.86249 0.364802,0.30899 0.888899,0.32159 1.348896,0.32323 0.13311,-0.0143 0.275175,0.004 0.399324,-0.0429 0.957855,-0.36227 1.796258,-0.74465 2.239814,-1.6372 0.07396,-0.14883 0.118937,-0.30874 0.178404,-0.4631 0.187019,-0.9561 0.188464,-1.93796 0.07354,-2.90311 -0.184463,-0.93394 -0.491518,-1.87484 -1.372478,-2.43947 -0.2714,-0.0914 -0.407582,-0.1543 -0.698134,-0.18383 -0.372404,-0.0379 -0.757405,0.0252 -1.130786,-0.0191 -0.239971,-0.1139 -0.991788,1.26067 -0.751819,1.37457 z"
       id="path1007"
       style="fill:#140000;fill-opacity:1;stroke:#000000;stroke-width:0.274127;stroke-linecap:round;stroke-linejoin:round;paint-order:markers fill stroke" />
    <path
       inkscape:export-filename="E:\LMplan\MyHappyPlans\Blog\YuanZ1949.github.io\source\_posts\读书笔记-生物信息学算法导论\blast演示.png"
       inkscape:export-ydpi="200"
       inkscape:export-xdpi="200"
       d="m 107.79671,108.35178 c 0.76718,-0.0479 1.5365,-0.0382 2.30482,-0.0311 0.17885,0.0171 0.34177,0.007 0.49615,0.10641 0.32146,0.20781 0.35082,0.89747 0.38693,1.20869 0.0507,1.14211 -0.003,2.28981 -0.18027,3.42079 -0.17818,0.65503 -0.43911,1.38679 -1.10182,1.7602 -0.0867,0.0489 -0.18863,0.0693 -0.28296,0.10392 0.22105,-0.12947 0.46065,-0.23483 0.66312,-0.38841 0.0644,-0.0488 -0.15712,0.0513 -0.23852,0.0664 -0.34948,0.0645 -0.48812,0.007 -0.72857,-0.21932 -0.74197,-0.97333 -0.99968,-2.1403 -1.20152,-3.29572 -0.0428,-0.76208 -0.31559,-1.88819 0.11008,-2.59613 0.059,-0.0981 0.15057,-0.17587 0.22586,-0.26381 0.10552,-0.0588 0.21106,-0.11769 0.31658,-0.17653 0.0539,-0.23354 -1.48748,-0.54245 -1.54141,-0.30892 v 0 c -0.11775,0.13771 -0.23548,0.27541 -0.35323,0.41312 -0.0722,0.15338 -0.16188,0.30064 -0.2168,0.46014 -0.32414,0.94131 -0.0495,1.97148 0.0392,2.92296 0.2489,1.30311 0.54429,2.61203 1.33757,3.73623 0.43799,0.46991 0.68908,0.7047 1.39359,0.71248 0.13451,0.002 0.2776,0.0275 0.40309,-0.0177 0.45685,-0.16414 0.8797,-0.40085 1.31955,-0.60128 0.10477,-0.0905 0.21733,-0.1737 0.31436,-0.27139 0.62446,-0.62867 0.92161,-1.43893 1.06128,-2.27117 0.14806,-1.19924 0.20673,-2.41034 0.14992,-3.6169 -0.11402,-0.82012 -0.28586,-1.75723 -1.21605,-2.1094 -0.13758,-0.0521 -0.28897,-0.064 -0.43345,-0.096 -0.75695,0.007 -1.51509,0.0179 -2.27083,-0.0311 -0.24153,-0.11465 -0.99822,1.26884 -0.75669,1.38348 z"
       id="path1009"
       style="fill:#140000;fill-opacity:1;stroke:#000000;stroke-width:0.274127;stroke-linecap:round;stroke-linejoin:round;paint-order:markers fill stroke" />
    <path
       inkscape:export-filename="E:\LMplan\MyHappyPlans\Blog\YuanZ1949.github.io\source\_posts\读书笔记-生物信息学算法导论\blast演示.png"
       inkscape:export-ydpi="200"
       inkscape:export-xdpi="200"
       d="m 70.994717,119.66027 c 0.425265,-0.20493 0.899297,-0.28198 1.370683,-0.32716 0.118557,0.0157 0.24042,-0.0284 0.359627,-0.0155 0.203554,0.022 0.380323,0.58249 0.432158,0.71622 0.229467,0.76761 0.180327,1.57221 0.1499,2.35956 -0.09365,0.55134 0.03968,1.21257 -0.133404,1.74521 -0.0257,0.0791 -0.06696,0.15305 -0.100453,0.22958 -0.137453,0.14351 -0.206383,0.38488 -0.38871,0.49268 -0.04113,0.0243 -0.181881,0.0554 -0.143042,0.028 0.828299,-0.50813 1.040307,-0.67074 0.694425,-0.413 -0.445763,0.12157 -0.914071,0.0288 -1.344701,-0.10021 -0.528105,-0.19087 -0.87605,-0.59773 -1.183066,-1.02275 -0.349032,-0.53793 -0.648607,-1.09993 -0.812858,-1.71083 -0.05015,-0.36952 -0.143449,-0.77344 -0.04928,-1.14519 0.0567,-0.22386 0.181861,-0.38736 0.304259,-0.58333 0.178855,-0.19649 0.287353,-0.3484 0.525105,-0.48636 0.08686,-0.0504 0.362864,-0.17097 0.282524,-0.11192 -0.46373,0.34083 -0.990786,0.50192 -0.428855,0.31151 0.24389,0.0887 0.82948,-1.30828 0.58559,-1.397 v 0 c -0.134797,0.01 -0.27954,-0.0192 -0.404391,0.0291 -1.105659,0.42797 -1.605433,0.73037 -2.141368,1.64319 -0.06329,0.14728 -0.140431,0.29003 -0.189856,0.44184 -0.196874,0.6047 -0.11724,1.24308 0.02769,1.84808 0.204673,0.69423 0.545523,1.33159 0.94473,1.94733 0.400834,0.57426 0.858772,1.11692 1.540405,1.4166 0.61538,0.23943 1.116134,0.35172 1.786627,0.35414 0.103566,-0.005 0.217661,0.0288 0.310688,-0.0138 1.130641,-0.5183 1.3315,-0.69206 1.69001,-1.64494 0.168322,-0.71609 0.133451,-1.4478 0.165507,-2.1774 0.02198,-0.88928 0.05381,-1.79697 -0.238627,-2.65543 -0.263811,-0.6701 -0.64974,-1.51269 -1.55855,-1.46015 -0.547012,0.021 -1.092882,0.0757 -1.623054,0.20889 -0.260659,-0.0651 -0.69038,1.42795 -0.429724,1.49305 z"
       id="path1011"
       style="fill:#140000;fill-opacity:1;stroke:#000000;stroke-width:0.274127;stroke-linecap:round;stroke-linejoin:round;paint-order:markers fill stroke" />
    <path
       inkscape:export-filename="E:\LMplan\MyHappyPlans\Blog\YuanZ1949.github.io\source\_posts\读书笔记-生物信息学算法导论\blast演示.png"
       inkscape:export-ydpi="200"
       inkscape:export-xdpi="200"
       d="m 83.701016,118.07407 c 0.446075,-0.0157 0.892789,-0.0232 1.339109,-0.0134 0.207417,0.10802 0.174652,0.0753 0.387591,0.35639 0.457384,0.60378 0.601165,1.28608 0.706745,2.00233 0.04918,0.51243 0.03228,1.0272 -0.0063,1.53953 -0.01877,0.24914 -0.03539,0.5696 -0.131179,0.81094 -0.04626,0.11652 -0.125248,0.21937 -0.18787,0.32907 -0.230406,0.27383 -0.446394,0.56189 -0.787696,0.72485 -0.08321,0.0397 -0.339816,0.13932 -0.264021,0.0883 0.46463,-0.31273 1.052839,-0.51881 0.559386,-0.33804 -0.06144,-0.005 -0.125526,0.002 -0.184325,-0.0151 -0.625915,-0.18471 -1.092439,-1.12334 -1.39752,-1.60176 -0.362526,-0.62134 -0.709733,-1.27818 -0.679759,-2.00399 0.0046,-0.11152 0.02769,-0.22171 0.04153,-0.33256 0.03841,-0.0991 0.05924,-0.20566 0.115216,-0.29717 0.327067,-0.53471 1.242303,-1.07994 1.785486,-1.41671 0.582229,-0.31733 0.520126,-0.28812 -0.169913,0.11289 0.254191,0.0472 0.56557,-1.40884 0.311378,-1.45602 v 0 c -1.385704,0.74959 -0.852686,0.41911 -1.641171,0.92981 -0.749646,0.53096 -1.55537,1.10562 -1.866634,1.97386 -0.05157,0.14385 -0.06,0.29812 -0.08999,0.44719 -0.0041,0.14757 -0.01855,0.29521 -0.01236,0.44273 0.03554,0.84774 0.445468,1.59217 0.887132,2.31514 0.322375,0.51978 0.616104,1.10409 1.032923,1.56655 0.305411,0.33886 0.737817,0.54429 1.173133,0.69523 0.14087,0.0113 0.289236,0.0776 0.422613,0.0339 1.178555,-0.38631 1.807664,-0.9001 2.335493,-1.89919 0.06017,-0.16781 0.1362,-0.33139 0.180503,-0.50343 0.06815,-0.26468 0.08011,-0.64637 0.08952,-0.91619 0.01951,-0.55996 0.01684,-1.12129 -0.06004,-1.6781 -0.156482,-0.8704 -0.349948,-1.6286 -0.877371,-2.3791 -0.115654,-0.16457 -0.233049,-0.33064 -0.378744,-0.47301 -0.14526,-0.14195 -0.325172,-0.24917 -0.487756,-0.37375 -0.460634,-0.0576 -0.924598,-0.0316 -1.388367,-0.0547 -0.241526,-0.11464 -0.998219,1.26884 -0.756691,1.38348 z"
       id="path1013"
       style="fill:#140000;fill-opacity:1;stroke:#000000;stroke-width:0.274127;stroke-linecap:round;stroke-linejoin:round;paint-order:markers fill stroke" />
    <path
       inkscape:export-filename="E:\LMplan\MyHappyPlans\Blog\YuanZ1949.github.io\source\_posts\读书笔记-生物信息学算法导论\blast演示.png"
       inkscape:export-ydpi="200"
       inkscape:export-xdpi="200"
       d="m 108.39221,118.53119 c 0.5711,-0.2998 -0.2326,0.12116 -0.47753,0.26039 -0.0804,0.0457 0.16457,-0.0857 0.25007,-0.12244 0.19757,-0.0849 0.40509,-0.14423 0.61672,-0.18898 0.025,0.0115 0.0567,0.0149 0.0749,0.0346 0.0905,0.0979 0.18106,0.38328 0.20515,0.45769 0.15512,0.47903 0.23017,0.95918 0.29258,1.45451 0.0647,0.91199 0.0634,1.83314 -0.0362,2.74282 -0.0955,0.55073 -0.34833,1.30195 -0.92221,1.59058 -0.0964,0.0485 -0.20983,0.0588 -0.31475,0.0881 0.2046,-0.11841 0.43574,-0.20412 0.6138,-0.35524 0.0743,-0.063 -0.19055,0.0608 -0.28896,0.0795 -0.43432,0.0827 -0.75914,0.0129 -1.15612,-0.14668 -0.84795,-0.60646 -1.05594,-1.42356 -1.16675,-2.36511 0.0164,-0.58312 -0.10369,-1.23921 0.15172,-1.79503 0.11708,-0.25485 0.32273,-0.4822 0.49818,-0.7006 0.96434,-0.56823 -0.0553,0.0213 -0.0672,0.0816 -0.028,0.14275 0.27853,-0.13005 0.4178,-0.19508 0.24694,0.0576 0.6273,-1.35692 0.38035,-1.41454 v 0 c -0.85988,0.30565 -1.74014,0.69475 -2.28883,1.41066 -0.2395,0.38964 -0.36997,0.54804 -0.50314,0.99103 -0.19923,0.66275 -0.0789,1.37936 -0.0617,2.05301 0.0711,0.47469 0.0854,0.72248 0.24659,1.18212 0.25082,0.71539 0.70953,1.35394 1.3206,1.84287 0.14569,0.0821 0.28318,0.17838 0.43708,0.24622 0.36263,0.15984 0.80604,0.20689 1.20165,0.19431 0.14582,-0.005 0.29976,0.0123 0.43596,-0.0364 0.46089,-0.16487 0.89013,-0.39809 1.3352,-0.59714 0.12503,-0.10146 0.26148,-0.19185 0.37506,-0.30439 0.57342,-0.56813 0.80891,-1.37662 0.89993,-2.12867 0.0631,-0.96665 0.0917,-1.94016 -0.0259,-2.90438 -0.11747,-0.73455 -0.24751,-1.94367 -0.80164,-2.51017 -0.10445,-0.10673 -0.24667,-0.17491 -0.37,-0.26236 -0.14475,-0.0407 -0.28391,-0.10718 -0.43427,-0.12205 -0.11149,-0.011 -0.22279,0.0255 -0.33268,0.0462 -0.76747,0.14495 -1.42914,0.53464 -2.07899,0.93167 -0.0805,0.23839 1.4929,0.69971 1.57343,0.46133 z"
       id="path1015"
       style="fill:#140000;fill-opacity:1;stroke:#000000;stroke-width:0.274127;stroke-linecap:round;stroke-linejoin:round;paint-order:markers fill stroke" />
    <path
       inkscape:export-filename="E:\LMplan\MyHappyPlans\Blog\YuanZ1949.github.io\source\_posts\读书笔记-生物信息学算法导论\blast演示.png"
       inkscape:export-ydpi="200"
       inkscape:export-xdpi="200"
       d="m 71.315826,129.82208 c 0.487333,-0.29547 1.101819,-0.31567 1.666413,-0.35044 0.196906,0.0252 0.50612,-0.075 0.695383,0.0361 0.03423,0.0201 0.128028,0.59358 0.145762,0.7161 0.06323,1.09139 0.02673,2.19104 -0.160529,3.27045 -0.141258,0.36287 -0.193445,0.80662 -0.453826,1.12432 -0.132274,0.1614 -0.398889,0.28 -0.586424,0.37455 0.252425,-0.15203 0.504852,-0.30407 0.757277,-0.4561 -0.06651,0.0412 -0.159855,0.14104 -0.249767,0.14453 -0.135023,0.005 -0.230737,-0.0614 -0.348214,-0.11494 -0.527639,-0.38558 -0.882327,-0.98364 -1.05116,-1.5844 -0.04538,-0.16148 -0.06788,-0.3278 -0.101827,-0.49169 -0.0969,-0.73836 -0.09844,-1.48303 0.0087,-2.21989 0.02806,-0.19297 0.04733,-0.388 0.09674,-0.57722 0.04199,-0.16081 0.117557,-0.31236 0.176337,-0.46855 0.17185,-0.39373 0.390446,-0.57768 0.760575,-0.79492 0.05602,-0.23579 -1.50024,-0.55672 -1.556267,-0.32093 v 0 c -0.332285,0.37339 -0.619632,0.74945 -0.746389,1.23198 -0.04927,0.19158 -0.109232,0.38104 -0.147801,0.57473 -0.200711,1.00796 -0.193489,2.04528 -0.04482,3.05796 0.04371,0.20234 0.07212,0.40807 0.131122,0.60702 0.232723,0.78474 0.726626,1.52273 1.358232,2.07761 0.352895,0.21308 0.700973,0.44053 1.141774,0.41245 0.08716,-0.006 0.181833,8e-4 0.259026,-0.0372 0.390573,-0.19282 0.752656,-0.43202 1.128982,-0.64803 0.166931,-0.15761 0.278035,-0.24721 0.409256,-0.43973 0.344082,-0.50481 0.45806,-1.1068 0.587518,-1.68177 0.144084,-1.15676 0.200975,-2.32767 0.119622,-3.49069 -0.08664,-0.53608 -0.151659,-1.05618 -0.612691,-1.44651 -0.238855,-0.20223 -0.73146,-0.21383 -1.029213,-0.2046 -0.661667,0.0232 -1.350394,0.0569 -1.996737,0.18561 -0.264358,-0.0541 -0.621421,1.46015 -0.357061,1.51425 z"
       id="path1017"
       style="fill:#140000;fill-opacity:1;stroke:#000000;stroke-width:0.274127;stroke-linecap:round;stroke-linejoin:round;paint-order:markers fill stroke" />
    <path
       inkscape:export-filename="E:\LMplan\MyHappyPlans\Blog\YuanZ1949.github.io\source\_posts\读书笔记-生物信息学算法导论\blast演示.png"
       inkscape:export-ydpi="200"
       inkscape:export-xdpi="200"
       d="m 84.928822,128.79719 c 0.0873,0.0316 0.172417,-0.0267 0.258329,-0.0185 0.403428,0.0385 0.645935,0.44552 0.845229,0.7166 0.595541,0.88912 0.82276,1.88865 0.862612,2.92161 -0.0012,0.80593 -0.167291,1.16703 -0.869787,1.63989 -0.772826,0.32552 0.03845,0.001 0.251406,-0.20758 0.08263,-0.0811 -0.224881,0.0786 -0.339379,0.1122 -0.248182,0.0728 -0.505557,0.12616 -0.758152,0.18436 -0.401533,0.14014 -0.725601,-0.57845 -0.857682,-0.81788 -0.259633,-0.61147 -0.359062,-1.2948 -0.266697,-1.94997 0.0213,-0.15112 0.06605,-0.29856 0.09907,-0.44784 0.237315,-0.85079 0.617724,-1.69828 1.252883,-2.35917 0.06426,-0.0495 0.120995,-0.10891 0.19276,-0.14841 0.04978,-0.0274 0.212694,-0.0796 0.165364,-0.0487 -0.249926,0.16328 -0.521389,0.29597 -0.778486,0.44928 -0.04494,0.0268 0.0919,-0.0515 0.141631,-0.0695 0.05117,-0.0186 0.10611,-0.0263 0.159159,-0.0395 0.242953,0.10093 0.909069,-1.29072 0.666116,-1.39164 v 0 c -0.09293,-5.3e-4 -0.486902,-0.011 -0.569553,0.0247 -0.836433,0.36129 -1.142507,0.4731 -1.5699,1.05701 -0.555305,0.84405 -0.989857,1.75653 -1.201006,2.7313 -0.02828,0.18325 -0.06749,0.36533 -0.08489,0.54975 -0.07539,0.79917 0.05943,1.60681 0.402689,2.34173 0.366272,0.67476 0.784034,1.39403 1.655381,1.53489 0.301218,-0.0373 0.566702,-0.11555 0.859463,-0.18922 0.138636,-0.0349 0.287076,-0.0414 0.418477,-0.0954 1.256057,-0.51597 1.035331,-0.38853 1.713907,-0.91191 0.105573,-0.11387 0.221229,-0.22027 0.316727,-0.34162 0.462499,-0.5877 0.572998,-1.28735 0.509591,-1.99812 -0.113782,-1.15574 -0.402182,-2.2831 -1.045265,-3.29134 -0.379653,-0.5686 -0.868759,-1.28053 -1.673308,-1.3205 -0.241527,-0.11464 -0.998219,1.26884 -0.756692,1.38348 z"
       id="path1021"
       style="fill:#140000;fill-opacity:1;stroke:#000000;stroke-width:0.274127;stroke-linecap:round;stroke-linejoin:round;paint-order:markers fill stroke" />
    <path
       inkscape:export-filename="E:\LMplan\MyHappyPlans\Blog\YuanZ1949.github.io\source\_posts\读书笔记-生物信息学算法导论\blast演示.png"
       inkscape:export-ydpi="200"
       inkscape:export-xdpi="200"
       d="m 95.546225,127.88497 c 0.63206,0.31974 0.87261,0.99532 1.108772,1.58437 0.21694,0.74289 0.423345,1.62813 0.305677,2.40199 -0.02235,0.14695 -0.08052,0.2872 -0.120786,0.4308 -0.179705,0.36534 -0.354937,0.72656 -0.73411,0.94777 -0.09276,0.0541 -0.383347,0.19085 -0.299486,0.12534 0.466758,-0.3646 0.969883,-0.48496 0.36913,-0.31129 -0.456652,0.0531 -0.962098,0.001 -1.325604,-0.28996 -0.06568,-0.0526 -0.116424,-0.11952 -0.174636,-0.17928 -0.421627,-0.73793 -0.676147,-1.55618 -0.919804,-2.35839 -0.03923,-0.16844 -0.145087,-0.57527 -0.145798,-0.75701 -0.0012,-0.32265 0.122676,-0.73045 0.327642,-0.99098 0.07021,-0.0892 0.161895,-0.16196 0.242841,-0.24294 -0.218521,0.10111 0.849784,-0.55209 0.636327,-0.41543 -0.186184,0.11921 -0.387504,0.21878 -0.563849,0.35032 -0.07748,0.0578 0.173974,-0.0896 0.264675,-0.12714 0.17563,-0.0728 0.23053,-0.0768 0.406236,-0.11347 0.04945,-0.004 0.09891,-0.009 0.148364,-0.0128 0.234571,0.11783 1.012267,-1.22581 0.777695,-1.34364 v 0 c -0.08701,-0.01 -0.174025,-0.0193 -0.261039,-0.0289 -1.228257,0.0161 -2.227257,0.67545 -2.985165,1.54446 -0.08239,0.13706 -0.179285,0.26739 -0.247156,0.41118 -0.346653,0.73443 -0.300131,1.53554 -0.04929,2.28569 0.324162,0.99111 -0.0321,-0.0816 0.315121,0.91308 0.211263,0.60519 0.382038,1.23063 0.760737,1.77004 0.09629,0.10331 0.183136,0.21497 0.28887,0.30993 0.507703,0.45601 1.207226,0.63214 1.894995,0.65451 0.148878,-0.007 0.308024,0.0296 0.44664,-0.0215 1.459064,-0.538 1.93886,-0.97539 2.370038,-2.30528 0.03014,-0.18873 0.07439,-0.37597 0.09043,-0.56619 0.07632,-0.90506 -0.131304,-1.81924 -0.396773,-2.68282 -0.305823,-0.81095 -0.683348,-1.59221 -1.433507,-2.13325 -0.200904,-0.16623 -1.298091,0.98457 -1.097184,1.1508 z"
       id="path1023"
       style="fill:#140000;fill-opacity:1;stroke:#000000;stroke-width:0.274127;stroke-linecap:round;stroke-linejoin:round;paint-order:markers fill stroke" />
    <path
       inkscape:export-filename="E:\LMplan\MyHappyPlans\Blog\YuanZ1949.github.io\source\_posts\读书笔记-生物信息学算法导论\blast演示.png"
       inkscape:export-ydpi="200"
       inkscape:export-xdpi="200"
       d="m 55.453022,85.455865 c -0.316057,0.02422 -1.220377,1.255501 -0.9904,1.402403 0.02778,0.0052 0.05948,8.17e-4 0.08309,0.0152 0.564188,0.344931 1.08601,0.746044 1.626433,1.121922 0.564194,0.392413 1.126583,0.786718 1.69242,1.177114 5.000211,3.449881 0.02924,-0.01388 5.916743,4.105256 4.554419,3.233745 8.962254,6.646639 13.233857,10.19304 1.660597,1.37867 3.282994,2.79633 4.917179,4.20156 5.188763,4.4618 5.207024,4.50432 10.322532,9.00746 5.165549,4.43805 10.160054,9.04005 15.251314,13.54922 3.9288,3.4796 7.92404,6.89523 11.92942,10.29947 0.71479,0.60108 1.42976,1.20233 2.14454,1.80341 0.12416,0.12949 0.98809,-0.57453 0.86393,-0.70402 -0.79464,-0.53131 -1.5894,-1.06259 -2.38405,-1.59389 -3.39312,-2.49058 -4.13906,-2.9735 -7.60306,-5.8332 -1.62144,-1.33858 -3.20443,-2.71611 -4.79071,-4.09005 -5.1475,-4.45849 -10.182581,-9.02624 -15.297131,-13.51655 -1.708897,-1.49815 -3.424287,-2.99005 -5.126745,-4.49444 -1.715353,-1.51576 -3.407929,-3.05353 -5.126745,-4.56596 C 76.357567,102.46713 70.517738,97.472329 64.41612,92.756792 62.031982,90.88582 59.639865,89.021956 57.331789,87.070596 c -2.719911,-2.299546 0.223574,0.170263 -1.475518,-1.327491 -0.110547,-0.09745 -0.232137,-0.18364 -0.348259,-0.275411 -0.01533,-0.0098 -0.03392,-0.01344 -0.05499,-0.01182 z"
       style="fill:#ec27d8;fill-opacity:1;stroke:#ff00fe;stroke-width:0.300344;stroke-linecap:round;stroke-linejoin:round;stroke-opacity:1;paint-order:markers fill stroke"
       id="path1035" />
  </g>
</svg>
